<mxfile host="app.diagrams.net" modified="2023-03-17T09:19:45.628Z" agent="5.0 (Windows NT 10.0; Win64; x64) AppleWebKit/537.36 (KHTML, like Gecko) Chrome/111.0.0.0 Safari/537.36 Edg/111.0.1661.43" etag="TSMtMo6BZMIAdg23kWP3" version="20.8.20" type="github">
  <diagram id="C5RBs43oDa-KdzZeNtuy" name="Page-1">
    <mxGraphModel dx="1221" dy="676" grid="1" gridSize="10" guides="1" tooltips="1" connect="1" arrows="1" fold="1" page="1" pageScale="1" pageWidth="583" pageHeight="827" background="#ffffff" math="0" shadow="0">
      <root>
        <mxCell id="WIyWlLk6GJQsqaUBKTNV-0" />
        <mxCell id="WIyWlLk6GJQsqaUBKTNV-1" parent="WIyWlLk6GJQsqaUBKTNV-0" />
        <mxCell id="FVgnyzEIImq9gnzeDGXT-4" value="怡仔说" style="shape=umlLifeline;perimeter=lifelinePerimeter;whiteSpace=wrap;html=1;container=0;dropTarget=0;collapsible=0;recursiveResize=0;outlineConnect=0;portConstraint=eastwest;newEdgeStyle={&quot;edgeStyle&quot;:&quot;elbowEdgeStyle&quot;,&quot;elbow&quot;:&quot;vertical&quot;,&quot;curved&quot;:0,&quot;rounded&quot;:0};" vertex="1" parent="WIyWlLk6GJQsqaUBKTNV-1">
          <mxGeometry x="700" y="99" width="100" height="675" as="geometry" />
        </mxCell>
        <mxCell id="FVgnyzEIImq9gnzeDGXT-5" value="" style="html=1;points=[];perimeter=orthogonalPerimeter;outlineConnect=0;targetShapes=umlLifeline;portConstraint=eastwest;newEdgeStyle={&quot;edgeStyle&quot;:&quot;elbowEdgeStyle&quot;,&quot;elbow&quot;:&quot;vertical&quot;,&quot;curved&quot;:0,&quot;rounded&quot;:0};" vertex="1" parent="FVgnyzEIImq9gnzeDGXT-4">
          <mxGeometry x="45" y="240" width="10" height="69" as="geometry" />
        </mxCell>
        <mxCell id="FVgnyzEIImq9gnzeDGXT-30" value="" style="html=1;points=[];perimeter=orthogonalPerimeter;outlineConnect=0;targetShapes=umlLifeline;portConstraint=eastwest;newEdgeStyle={&quot;edgeStyle&quot;:&quot;elbowEdgeStyle&quot;,&quot;elbow&quot;:&quot;vertical&quot;,&quot;curved&quot;:0,&quot;rounded&quot;:0};" vertex="1" parent="FVgnyzEIImq9gnzeDGXT-4">
          <mxGeometry x="45" y="359" width="10" height="131" as="geometry" />
        </mxCell>
        <mxCell id="FVgnyzEIImq9gnzeDGXT-32" value="5. 在login/auth_redirect&lt;br&gt;页面获取到微信code和state" style="endArrow=classic;html=1;rounded=0;dashed=1;" edge="1" parent="FVgnyzEIImq9gnzeDGXT-4" target="FVgnyzEIImq9gnzeDGXT-30">
          <mxGeometry x="-0.0769" y="-10" width="50" height="50" relative="1" as="geometry">
            <mxPoint x="40" y="299" as="sourcePoint" />
            <mxPoint x="-20" y="329" as="targetPoint" />
            <Array as="points">
              <mxPoint x="-20" y="299" />
              <mxPoint x="-20" y="329" />
              <mxPoint x="-20" y="369" />
            </Array>
            <mxPoint as="offset" />
          </mxGeometry>
        </mxCell>
        <mxCell id="FVgnyzEIImq9gnzeDGXT-10" value="HBEM" style="shape=umlLifeline;perimeter=lifelinePerimeter;whiteSpace=wrap;html=1;container=0;dropTarget=0;collapsible=0;recursiveResize=0;outlineConnect=0;portConstraint=eastwest;newEdgeStyle={&quot;edgeStyle&quot;:&quot;elbowEdgeStyle&quot;,&quot;elbow&quot;:&quot;vertical&quot;,&quot;curved&quot;:0,&quot;rounded&quot;:0};" vertex="1" parent="WIyWlLk6GJQsqaUBKTNV-1">
          <mxGeometry x="900" y="99" width="100" height="675" as="geometry" />
        </mxCell>
        <mxCell id="FVgnyzEIImq9gnzeDGXT-33" value="" style="html=1;points=[];perimeter=orthogonalPerimeter;outlineConnect=0;targetShapes=umlLifeline;portConstraint=eastwest;newEdgeStyle={&quot;edgeStyle&quot;:&quot;elbowEdgeStyle&quot;,&quot;elbow&quot;:&quot;vertical&quot;,&quot;curved&quot;:0,&quot;rounded&quot;:0};" vertex="1" parent="FVgnyzEIImq9gnzeDGXT-10">
          <mxGeometry x="45" y="370" width="10" height="100" as="geometry" />
        </mxCell>
        <mxCell id="FVgnyzEIImq9gnzeDGXT-14" style="edgeStyle=orthogonalEdgeStyle;rounded=0;orthogonalLoop=1;jettySize=auto;html=1;dashed=1;endArrow=none;endFill=0;" edge="1" parent="WIyWlLk6GJQsqaUBKTNV-1">
          <mxGeometry relative="1" as="geometry">
            <mxPoint x="210" y="780" as="targetPoint" />
            <mxPoint x="210" y="185" as="sourcePoint" />
          </mxGeometry>
        </mxCell>
        <mxCell id="FVgnyzEIImq9gnzeDGXT-12" value="用户" style="shape=umlActor;verticalLabelPosition=bottom;verticalAlign=top;html=1;outlineConnect=0;" vertex="1" parent="WIyWlLk6GJQsqaUBKTNV-1">
          <mxGeometry x="190" y="93" width="30" height="60" as="geometry" />
        </mxCell>
        <mxCell id="FVgnyzEIImq9gnzeDGXT-25" value="" style="endArrow=classic;html=1;rounded=0;dashed=1;" edge="1" parent="WIyWlLk6GJQsqaUBKTNV-1" source="FVgnyzEIImq9gnzeDGXT-0">
          <mxGeometry width="50" height="50" relative="1" as="geometry">
            <mxPoint x="362" y="240" as="sourcePoint" />
            <mxPoint x="212" y="240" as="targetPoint" />
          </mxGeometry>
        </mxCell>
        <mxCell id="FVgnyzEIImq9gnzeDGXT-26" value="2.显示微信登录页面" style="edgeLabel;html=1;align=center;verticalAlign=middle;resizable=0;points=[];" vertex="1" connectable="0" parent="FVgnyzEIImq9gnzeDGXT-25">
          <mxGeometry x="-0.4789" y="-4" relative="1" as="geometry">
            <mxPoint x="-41" y="-11" as="offset" />
          </mxGeometry>
        </mxCell>
        <mxCell id="FVgnyzEIImq9gnzeDGXT-0" value="怡健康" style="shape=umlLifeline;perimeter=lifelinePerimeter;whiteSpace=wrap;html=1;container=0;dropTarget=0;collapsible=0;recursiveResize=0;outlineConnect=0;portConstraint=eastwest;newEdgeStyle={&quot;edgeStyle&quot;:&quot;elbowEdgeStyle&quot;,&quot;elbow&quot;:&quot;vertical&quot;,&quot;curved&quot;:0,&quot;rounded&quot;:0};" vertex="1" parent="WIyWlLk6GJQsqaUBKTNV-1">
          <mxGeometry x="330" y="99" width="100" height="681" as="geometry" />
        </mxCell>
        <mxCell id="FVgnyzEIImq9gnzeDGXT-1" value="" style="html=1;points=[];perimeter=orthogonalPerimeter;outlineConnect=0;targetShapes=umlLifeline;portConstraint=eastwest;newEdgeStyle={&quot;edgeStyle&quot;:&quot;elbowEdgeStyle&quot;,&quot;elbow&quot;:&quot;vertical&quot;,&quot;curved&quot;:0,&quot;rounded&quot;:0};" vertex="1" parent="FVgnyzEIImq9gnzeDGXT-0">
          <mxGeometry x="45" y="70" width="10" height="100" as="geometry" />
        </mxCell>
        <mxCell id="FVgnyzEIImq9gnzeDGXT-2" value="1. 微信公众号菜单进入" style="html=1;verticalAlign=bottom;startArrow=oval;endArrow=block;startSize=8;edgeStyle=elbowEdgeStyle;elbow=vertical;curved=0;rounded=0;" edge="1" parent="FVgnyzEIImq9gnzeDGXT-0" target="FVgnyzEIImq9gnzeDGXT-1">
          <mxGeometry relative="1" as="geometry">
            <mxPoint x="-120" y="80" as="sourcePoint" />
          </mxGeometry>
        </mxCell>
        <mxCell id="FVgnyzEIImq9gnzeDGXT-36" value="" style="html=1;points=[];perimeter=orthogonalPerimeter;outlineConnect=0;targetShapes=umlLifeline;portConstraint=eastwest;newEdgeStyle={&quot;edgeStyle&quot;:&quot;elbowEdgeStyle&quot;,&quot;elbow&quot;:&quot;vertical&quot;,&quot;curved&quot;:0,&quot;rounded&quot;:0};" vertex="1" parent="FVgnyzEIImq9gnzeDGXT-0">
          <mxGeometry x="45" y="461" width="10" height="70" as="geometry" />
        </mxCell>
        <mxCell id="FVgnyzEIImq9gnzeDGXT-41" value="" style="html=1;points=[];perimeter=orthogonalPerimeter;outlineConnect=0;targetShapes=umlLifeline;portConstraint=eastwest;newEdgeStyle={&quot;edgeStyle&quot;:&quot;elbowEdgeStyle&quot;,&quot;elbow&quot;:&quot;vertical&quot;,&quot;curved&quot;:0,&quot;rounded&quot;:0};" vertex="1" parent="FVgnyzEIImq9gnzeDGXT-0">
          <mxGeometry x="45" y="581" width="10" height="69" as="geometry" />
        </mxCell>
        <mxCell id="FVgnyzEIImq9gnzeDGXT-27" value="3.点击“微信登录”按钮" style="endArrow=classic;html=1;rounded=0;" edge="1" parent="WIyWlLk6GJQsqaUBKTNV-1">
          <mxGeometry x="-0.0303" y="16" width="50" height="50" relative="1" as="geometry">
            <mxPoint x="210" y="311" as="sourcePoint" />
            <mxPoint x="550" y="310" as="targetPoint" />
            <Array as="points">
              <mxPoint x="250" y="311" />
            </Array>
            <mxPoint as="offset" />
          </mxGeometry>
        </mxCell>
        <mxCell id="FVgnyzEIImq9gnzeDGXT-34" value="6.使用code和state获取跳转到&lt;br&gt;怡健康的url" style="endArrow=classic;html=1;rounded=0;" edge="1" parent="WIyWlLk6GJQsqaUBKTNV-1">
          <mxGeometry x="0.027" y="23" width="50" height="50" relative="1" as="geometry">
            <mxPoint x="755" y="490" as="sourcePoint" />
            <mxPoint x="940" y="490" as="targetPoint" />
            <Array as="points">
              <mxPoint x="820" y="490" />
            </Array>
            <mxPoint as="offset" />
          </mxGeometry>
        </mxCell>
        <mxCell id="FVgnyzEIImq9gnzeDGXT-35" value="7.返回跳转到怡健康的url" style="endArrow=classic;html=1;rounded=0;dashed=1;" edge="1" parent="WIyWlLk6GJQsqaUBKTNV-1">
          <mxGeometry x="-0.0162" y="-11" width="50" height="50" relative="1" as="geometry">
            <mxPoint x="941" y="547" as="sourcePoint" />
            <mxPoint x="756" y="547" as="targetPoint" />
            <mxPoint as="offset" />
          </mxGeometry>
        </mxCell>
        <mxCell id="FVgnyzEIImq9gnzeDGXT-37" value="8.跳转后台返回的url页面" style="endArrow=classic;html=1;rounded=0;" edge="1" parent="WIyWlLk6GJQsqaUBKTNV-1">
          <mxGeometry x="-0.0952" y="-14" width="50" height="50" relative="1" as="geometry">
            <mxPoint x="740" y="578" as="sourcePoint" />
            <mxPoint x="390" y="578" as="targetPoint" />
            <mxPoint as="offset" />
          </mxGeometry>
        </mxCell>
        <mxCell id="FVgnyzEIImq9gnzeDGXT-38" value="9.使用密钥解密url传递&lt;br&gt;过来的参数userinfo,&lt;br&gt;获取用户的微信unionId&lt;br&gt;和openId" style="endArrow=classic;html=1;rounded=0;dashed=1;" edge="1" parent="WIyWlLk6GJQsqaUBKTNV-1">
          <mxGeometry x="-0.0769" y="-10" width="50" height="50" relative="1" as="geometry">
            <mxPoint x="370" y="614" as="sourcePoint" />
            <mxPoint x="375" y="694" as="targetPoint" />
            <Array as="points">
              <mxPoint x="360" y="614" />
              <mxPoint x="340" y="614" />
              <mxPoint x="310" y="614" />
              <mxPoint x="310" y="654" />
              <mxPoint x="310" y="694" />
            </Array>
            <mxPoint as="offset" />
          </mxGeometry>
        </mxCell>
        <mxCell id="FVgnyzEIImq9gnzeDGXT-39" value="" style="endArrow=classic;html=1;rounded=0;" edge="1" parent="WIyWlLk6GJQsqaUBKTNV-1">
          <mxGeometry width="50" height="50" relative="1" as="geometry">
            <mxPoint x="370" y="738" as="sourcePoint" />
            <mxPoint x="210" y="738" as="targetPoint" />
          </mxGeometry>
        </mxCell>
        <mxCell id="FVgnyzEIImq9gnzeDGXT-40" value="10.登录成功" style="edgeLabel;html=1;align=center;verticalAlign=middle;resizable=0;points=[];" vertex="1" connectable="0" parent="FVgnyzEIImq9gnzeDGXT-39">
          <mxGeometry x="-0.1125" y="2" relative="1" as="geometry">
            <mxPoint y="-14" as="offset" />
          </mxGeometry>
        </mxCell>
        <mxCell id="FVgnyzEIImq9gnzeDGXT-50" value="微信服务器" style="shape=umlLifeline;perimeter=lifelinePerimeter;whiteSpace=wrap;html=1;container=0;dropTarget=0;collapsible=0;recursiveResize=0;outlineConnect=0;portConstraint=eastwest;newEdgeStyle={&quot;edgeStyle&quot;:&quot;elbowEdgeStyle&quot;,&quot;elbow&quot;:&quot;vertical&quot;,&quot;curved&quot;:0,&quot;rounded&quot;:0};" vertex="1" parent="WIyWlLk6GJQsqaUBKTNV-1">
          <mxGeometry x="510" y="99" width="100" height="281" as="geometry" />
        </mxCell>
        <mxCell id="FVgnyzEIImq9gnzeDGXT-51" value="" style="html=1;points=[];perimeter=orthogonalPerimeter;outlineConnect=0;targetShapes=umlLifeline;portConstraint=eastwest;newEdgeStyle={&quot;edgeStyle&quot;:&quot;elbowEdgeStyle&quot;,&quot;elbow&quot;:&quot;vertical&quot;,&quot;curved&quot;:0,&quot;rounded&quot;:0};" vertex="1" parent="FVgnyzEIImq9gnzeDGXT-50">
          <mxGeometry x="45" y="195" width="10" height="70" as="geometry" />
        </mxCell>
        <mxCell id="FVgnyzEIImq9gnzeDGXT-56" value="4.根据指定的redirect_uri参数&lt;br&gt;，进行跳转" style="endArrow=classic;html=1;rounded=0;" edge="1" parent="WIyWlLk6GJQsqaUBKTNV-1" target="FVgnyzEIImq9gnzeDGXT-5">
          <mxGeometry x="0.0286" y="22" width="50" height="50" relative="1" as="geometry">
            <mxPoint x="570" y="352" as="sourcePoint" />
            <mxPoint x="829.5" y="352" as="targetPoint" />
            <mxPoint as="offset" />
          </mxGeometry>
        </mxCell>
      </root>
    </mxGraphModel>
  </diagram>
</mxfile>
